<svg xmlns="http://www.w3.org/2000/svg" width="130" height="88" viewBox="0 0 130 88">
    <path fill="#fff" d="M128.5.2a2.92 2.92 0 0 0-.9-.2 3.12 3.12 0 0 0-1.8.7l-30.2 30-35.3 34.9-18.5 18.3a2.27 2.27 0 0 0-.5 2.6 2.53 2.53 0 0 0 2.3 1.5h83.9a2.48 2.48 0 0 0 2.5-2.5v-83a2.53 2.53 0 0 0-1.5-2.3zM125 9.5v73.7H49.5l.9-.8 11.3-11.2.4-.3.4.3 2.8 2.8a2.34 2.34 0 0 0 1.7.7 2.19 2.19 0 0 0 1.7-.7 2.34 2.34 0 0 0 .7-1.7 2.84 2.84 0 0 0-.7-1.7l-2.8-2.8-.4-.3.4-.3 7.6-7.5.4-.3.4.3 2.8 2.8a2.34 2.34 0 0 0 1.7.7 2.19 2.19 0 0 0 1.7-.7 2.34 2.34 0 0 0 .7-1.7 2.84 2.84 0 0 0-.7-1.7l-2.8-2.8-.4-.3.4-.3 7.6-7.5.4-.3.4.3 2.8 2.8a2.34 2.34 0 0 0 1.7.7 2.19 2.19 0 0 0 1.7-.7 2.42 2.42 0 0 0 0-3.5l-2.8-2.8-.5-.6.4-.3 7.6-7.5.4-.3.4.3 2.8 2.8a2.34 2.34 0 0 0 1.7.7 2.19 2.19 0 0 0 1.7-.7 2.42 2.42 0 0 0 0-3.5l-2.8-2.8-.4-.3.4-.3 7.6-7.5.4-.3.4.3 2.8 2.8a2.34 2.34 0 0 0 1.7.7 2.19 2.19 0 0 0 1.7-.7 2.34 2.34 0 0 0 .7-1.7 2.84 2.84 0 0 0-.7-1.7l-2.8-2.8-.4-.4.4-.3 11.3-11.2.8-.8v.9z"/>
    <path fill="#fff" d="M116.4 38.5a2.35 2.35 0 0 0-.8-.2 2.27 2.27 0 0 0-1.6.6L80.7 72a1.83 1.83 0 0 0-.4 2.3 2.08 2.08 0 0 0 2.1 1.3h33.2a2.22 2.22 0 0 0 2.2-2.2V40.6a2.63 2.63 0 0 0-1.4-2.1zm-3.1 9.1v23.8H87.6l1.3-1.3L112.1 47l1.3-1.3v1.9zM56.4 62.2l.3-.4.2-.1.9-.9H12.4a8 8 0 0 1-8.1-7.9V35.4a1.82 1.82 0 0 1 1.9-1.8h8.9a1.88 1.88 0 0 1 1.9 1.8v14.4a2.22 2.22 0 0 0 2.2 2.2h47.5l4.4-4.4H60.4v-1.9a7 7 0 0 1 7.1-7H80l4.4-4.4H67.5a11.38 11.38 0 0 0-7.1 2.5V21.2a5.25 5.25 0 0 1 5.3-5.2h33.1a5.17 5.17 0 0 1 3.2 1.1l3.1-3.1a9.4 9.4 0 0 0-6.3-2.3H65.7a9.9 9.9 0 0 0-7.5 3.5 9.75 9.75 0 0 0-7.5-3.5H17.6A9.58 9.58 0 0 0 8 21.2v7.9H6.2A6.21 6.21 0 0 0 0 35.2v17.5A12.44 12.44 0 0 0 12.4 65h.1c-1.5 4-1.6 4.3-1.6 4.3a5.1 5.1 0 0 0 .6 4.8 5.38 5.38 0 0 0 4.4 2.4h2.7a5.45 5.45 0 0 0 4.3-2.1l7.2-9.3h23.3zM56 47.7H21.3v-8.9H49a7.11 7.11 0 0 1 7.1 7v1.9zM17.6 16h33.1a5.32 5.32 0 0 1 5.3 5.2v15.6a11.59 11.59 0 0 0-7.1-2.5H21.2a5.94 5.94 0 0 0-4.1-4.9 6.93 6.93 0 0 0-2-.3h-2.7l-.1-7.9a5.32 5.32 0 0 1 5.3-5.2zm1.9 55.8a.91.91 0 0 1-.8.4H16a1.23 1.23 0 0 1-.8-.4 1 1 0 0 1-.1-.9l2.2-5.7h7.5z"/>
</svg>
